# xmcd
#
# Track frame offsets: 
#        150
#        15225
#        28097
#        39500
#        52059
#        63936
#
# Disc length: 985 seconds
#
# Revision: 0
# Processed by: cddbd v1.5.2PL0 Copyright (c) Steve Scherf et al.
# Submitted via: ExactAudioCopy v0.99pb5
#
DISCID=4403d706
DTITLE=Nicky Francis and County Killer - Songs from a Snug Retreat
DYEAR=2010
DGENRE=Rock and Roll
TTITLE0=Good Time Andy
TTITLE1=Paint It with Gold
TTITLE2=Shopkeeper
TTITLE3=Your Success
TTITLE4=Like a Thief in the Night
TTITLE5=God Bless the Movie Theatres on Houston Street
EXTD=
EXTT0=
EXTT1=
EXTT2=
EXTT3=
EXTT4=
EXTT5=
PLAYORDER=
